<svg width="23" height="23" viewBox="0 0 23 23" fill="none" xmlns="http://www.w3.org/2000/svg">
<path d="M19.9868 0.554688H2.88654C2.26809 0.554688 1.67498 0.800364 1.23767 1.23767C0.800364 1.67498 0.554688 2.26809 0.554688 2.88654L0.554688 19.9868C0.554688 20.6052 0.800364 21.1984 1.23767 21.6357C1.67498 22.073 2.26809 22.3186 2.88654 22.3186H9.55418V14.9194H6.49363V11.4367H9.55418V8.78224C9.55418 5.76298 11.3517 4.09522 14.1047 4.09522C15.4232 4.09522 16.8019 4.33035 16.8019 4.33035V7.29374H15.2828C13.786 7.29374 13.3192 8.2226 13.3192 9.17526V11.4367H16.6605L16.1261 14.9194H13.3192V22.3186H19.9868C20.6052 22.3186 21.1984 22.073 21.6357 21.6357C22.073 21.1984 22.3186 20.6052 22.3186 19.9868V2.88654C22.3186 2.26809 22.073 1.67498 21.6357 1.23767C21.1984 0.800364 20.6052 0.554688 19.9868 0.554688V0.554688Z" fill="#8B8B8B"/>
</svg>
