<svg id="Layer_1" data-name="Layer 1" xmlns="http://www.w3.org/2000/svg" xmlns:xlink="http://www.w3.org/1999/xlink" viewBox="0 0 402.24 71.56"><defs><style>.cls-1{fill:#fff;}.cls-2{fill:url(#linear-gradient);}</style><linearGradient id="linear-gradient" x1="-7.69" y1="977.72" x2="54.8" y2="977.72" gradientTransform="translate(-1.34 -940.7) rotate(-0.57)" gradientUnits="userSpaceOnUse"><stop offset="0" stop-color="#4e4ed6"/><stop offset="0.65" stop-color="#8258dc"/><stop offset="1" stop-color="#ad3bff"/></linearGradient></defs><title>logo_full_white_text</title><path class="cls-1" d="M.87,27.14V47.89L26.16,63.78h10.7L54.38,53.07l2.91-27.23S53.4,19,52.43,18.05,33,11.24,33,11.24l-8.75,1Z" transform="translate(-0.87 -1)"/><path class="cls-2" d="M58.35,15.24,37.17,2.43a10,10,0,0,0-10.3,0L6.08,15A10.76,10.76,0,0,0,.87,24.21V31.8a.85.85,0,0,0,.85.85l8.13-.06a.85.85,0,0,0,.84-.84h0V28.62a5.82,5.82,0,0,1,2.92-5.11l16.17-9.35a4.77,4.77,0,0,1,4.79,0L51,23.72a1.69,1.69,0,0,1,.58,2.33,1.61,1.61,0,0,1-.58.58L44.2,30.52a2,2,0,0,1-2.07,0l-7.89-4.65a3.87,3.87,0,0,0-3.89,0l-6.53,3.71a5.5,5.5,0,0,0-2.77,4.73L21,42.19a3.31,3.31,0,0,0,1.65,2.92L29.3,49a5.6,5.6,0,0,0,5.6,0L42,45a2.83,2.83,0,0,1,2.79,0l5.58,3.13A2.12,2.12,0,0,1,51.15,51v0a2.19,2.19,0,0,1-.8.8L37.16,59.49a10,10,0,0,1-10,0l-14.3-8.22a4.19,4.19,0,0,1-2.09-3.58V42.94a.84.84,0,0,0-.83-.84h0l-8.18.06A.84.84,0,0,0,.9,43v9.64a5.48,5.48,0,0,0,2.6,4.69L25.72,70.8a12.21,12.21,0,0,0,12.64,0L60.15,57.64a6.4,6.4,0,0,0,3-5.49V23.8A10,10,0,0,0,58.35,15.24ZM37.07,39.91a1.51,1.51,0,0,1-.75,1.33L33,43.18a1.51,1.51,0,0,1-1.51,0L28.11,41.3A1.48,1.48,0,0,1,27.34,40V36.1a1.49,1.49,0,0,1,.77-1.32l3.35-2a1.56,1.56,0,0,1,1.51,0l3.38,2a1.48,1.48,0,0,1,.77,1.31Z" transform="translate(-0.87 -1)"/><path class="cls-1" d="M84.39,27.21a17.37,17.37,0,0,1,6.76-6.84A19.6,19.6,0,0,1,101,17.92a18.85,18.85,0,0,1,11.54,3.55A17.19,17.19,0,0,1,119,31.18H108.81a8.29,8.29,0,0,0-3.21-3.65,9,9,0,0,0-4.72-1.25,8.83,8.83,0,0,0-6.9,3,11.46,11.46,0,0,0-2.64,7.92A11.53,11.53,0,0,0,94,45.14a8.83,8.83,0,0,0,6.9,3,9,9,0,0,0,4.72-1.24,8.14,8.14,0,0,0,3.21-3.61H119A16.92,16.92,0,0,1,112.55,53,19,19,0,0,1,101,56.46,19.57,19.57,0,0,1,91.16,54a17.36,17.36,0,0,1-6.76-6.81,20.16,20.16,0,0,1-2.43-10A20.29,20.29,0,0,1,84.39,27.21Z" transform="translate(-0.87 -1)"/><path class="cls-1" d="M137.86,27.21a10.53,10.53,0,0,1,5.39-1.42v9.74h-2.53A7.74,7.74,0,0,0,135.54,37c-1.15,1-1.72,2.72-1.72,5.2v14H124.6V26.11h9.22v5A12.15,12.15,0,0,1,137.86,27.21Z" transform="translate(-0.87 -1)"/><path class="cls-1" d="M175.86,43.36H155a6.24,6.24,0,0,0,1.81,4.28,5.47,5.47,0,0,0,3.9,1.49,4.85,4.85,0,0,0,4.8-2.91h9.81a13.5,13.5,0,0,1-2.72,5.31,13.67,13.67,0,0,1-4.93,3.72A15.94,15.94,0,0,1,161,56.62a16.11,16.11,0,0,1-7.87-1.89,13.44,13.44,0,0,1-5.39-5.39,16.58,16.58,0,0,1-1.94-8.19,16.83,16.83,0,0,1,1.91-8.2,13.3,13.3,0,0,1,5.4-5.42,17.47,17.47,0,0,1,15.69,0,13.23,13.23,0,0,1,5.31,5.23,16,16,0,0,1,1.89,7.9A22.2,22.2,0,0,1,175.86,43.36Zm-9.27-5.12A4.76,4.76,0,0,0,165,34.46a6,6,0,0,0-4-1.4,5.82,5.82,0,0,0-4,1.35,6,6,0,0,0-2,3.83Z" transform="translate(-0.87 -1)"/><path class="cls-1" d="M180.79,33a13,13,0,0,1,4.77-5.42,12.45,12.45,0,0,1,6.74-1.89A11.62,11.62,0,0,1,197.88,27a9.51,9.51,0,0,1,3.69,3.4V26.11h9.22V56.19h-9.22V51.93a10,10,0,0,1-3.74,3.39,11.52,11.52,0,0,1-5.58,1.3,12.28,12.28,0,0,1-6.69-1.92,13.14,13.14,0,0,1-4.77-5.44A18,18,0,0,1,179,41.09,18,18,0,0,1,180.79,33Zm18.87,2.75a6.49,6.49,0,0,0-9.18-.15h0l-.15.15a7.47,7.47,0,0,0-1.91,5.41,7.68,7.68,0,0,0,1.91,5.42,6.42,6.42,0,0,0,9.08.25h0c.08-.08.17-.16.25-.25a7.55,7.55,0,0,0,1.91-5.44A7.57,7.57,0,0,0,199.66,35.75Z" transform="translate(-0.87 -1)"/><path class="cls-1" d="M234.24,48.37v7.82h-4.69c-3.35,0-6-.82-7.82-2.45s-2.8-4.31-2.8-8v-12h-3.67V26.11h3.67V18.78h9.21v7.33h6v7.65h-6V45.84a2.52,2.52,0,0,0,.65,1.94,3.2,3.2,0,0,0,2.16.59Z" transform="translate(-0.87 -1)"/><path class="cls-1" d="M267.55,43.36H246.69a6.23,6.23,0,0,0,1.8,4.28,5.51,5.51,0,0,0,3.91,1.49,4.85,4.85,0,0,0,4.8-2.91H267a13.54,13.54,0,0,1-2.71,5.31,13.71,13.71,0,0,1-4.94,3.72,15.93,15.93,0,0,1-6.63,1.35,16.11,16.11,0,0,1-7.87-1.89,13.44,13.44,0,0,1-5.39-5.39,16.58,16.58,0,0,1-1.94-8.19,16.71,16.71,0,0,1,1.92-8.2,13.15,13.15,0,0,1,5.36-5.4,17.47,17.47,0,0,1,15.69,0,13.21,13.21,0,0,1,5.3,5.23,15.87,15.87,0,0,1,1.92,7.92A26.58,26.58,0,0,1,267.55,43.36Zm-9.27-5.12a4.78,4.78,0,0,0-1.62-3.78,6,6,0,0,0-4-1.4,5.88,5.88,0,0,0-3.91,1.35,6,6,0,0,0-2,3.83Z" transform="translate(-0.87 -1)"/><path class="cls-1" d="M300.75,40a9.91,9.91,0,0,1-1.32,13.37q-3.31,2.77-9.24,2.78H272.56V18.35h17q5.78,0,9,2.64a8.76,8.76,0,0,1,3.26,7.17,8.59,8.59,0,0,1-1.75,5.55,9,9,0,0,1-4.66,3.07A8.83,8.83,0,0,1,300.75,40Zm-19-6.38h6a5.35,5.35,0,0,0,3.48-1,3.57,3.57,0,0,0,1.21-2.94,3.64,3.64,0,0,0-1.21-3,5.22,5.22,0,0,0-3.48-1h-6Zm10.37,14a3.73,3.73,0,0,0,1.27-3,3.87,3.87,0,0,0-1.29-3.08,5.37,5.37,0,0,0-3.64-1.14h-6.68v8.36h6.79a5.45,5.45,0,0,0,3.58-1Z" transform="translate(-0.87 -1)"/><path class="cls-1" d="M308,33a13,13,0,0,1,4.77-5.42,12.45,12.45,0,0,1,6.74-1.89A11.62,11.62,0,0,1,325.09,27a9.51,9.51,0,0,1,3.69,3.4V26.11H338V56.19h-9.22V51.93A10,10,0,0,1,325,55.32a11.48,11.48,0,0,1-5.57,1.3,12.2,12.2,0,0,1-6.69-1.92A13.28,13.28,0,0,1,308,49.26a18.17,18.17,0,0,1-1.75-8.17A18.07,18.07,0,0,1,308,33Zm18.87,2.75a6.49,6.49,0,0,0-9.18-.15h0l-.15.15a7.47,7.47,0,0,0-1.91,5.41,7.68,7.68,0,0,0,1.91,5.42,6.42,6.42,0,0,0,9.08.25h0c.08-.08.17-.16.25-.25a7.55,7.55,0,0,0,1.91-5.44,7.55,7.55,0,0,0-1.91-5.44Z" transform="translate(-0.87 -1)"/><path class="cls-1" d="M349.91,55.27a11.92,11.92,0,0,1-4.85-3.69,9.71,9.71,0,0,1-2-5.26h9.11a3.56,3.56,0,0,0,1.46,2.54,5.19,5.19,0,0,0,3.18,1,4.49,4.49,0,0,0,2.67-.68,2.1,2.1,0,0,0,.94-1.75,2,2,0,0,0-1.35-1.9,27.61,27.61,0,0,0-4.36-1.38,39.28,39.28,0,0,1-5.39-1.62,9.17,9.17,0,0,1-3.72-2.64A7.18,7.18,0,0,1,344,35a8.32,8.32,0,0,1,1.43-4.71,9.46,9.46,0,0,1,4.21-3.37,15.92,15.92,0,0,1,6.6-1.24c3.77,0,6.75.93,8.92,2.8a11,11,0,0,1,3.75,7.44h-8.52A3.64,3.64,0,0,0,359,33.44a4.75,4.75,0,0,0-3-.92,4.24,4.24,0,0,0-2.48.62,2,2,0,0,0-.86,1.7A2.08,2.08,0,0,0,354,36.78a22.12,22.12,0,0,0,4.29,1.3,46.9,46.9,0,0,1,5.44,1.69,9.41,9.41,0,0,1,3.69,2.7,7.61,7.61,0,0,1,1.65,5,8,8,0,0,1-1.48,4.72,9.8,9.8,0,0,1-4.26,3.26,16.29,16.29,0,0,1-6.44,1.19A17.25,17.25,0,0,1,349.91,55.27Z" transform="translate(-0.87 -1)"/><path class="cls-1" d="M403,43.36H382.09a6.23,6.23,0,0,0,1.8,4.28,5.55,5.55,0,0,0,3.91,1.49,4.85,4.85,0,0,0,4.8-2.91h9.81a13.5,13.5,0,0,1-2.72,5.31,13.71,13.71,0,0,1-4.94,3.72,15.86,15.86,0,0,1-6.62,1.35,16.15,16.15,0,0,1-7.88-1.89,13.42,13.42,0,0,1-5.38-5.39,16.48,16.48,0,0,1-1.95-8.19,16.71,16.71,0,0,1,1.92-8.2,13.15,13.15,0,0,1,5.36-5.4,17.47,17.47,0,0,1,15.69,0,13.23,13.23,0,0,1,5.31,5.23,16,16,0,0,1,1.91,7.92A21.84,21.84,0,0,1,403,43.36Zm-9.27-5.12a4.78,4.78,0,0,0-1.62-3.78,6,6,0,0,0-4-1.4,5.88,5.88,0,0,0-3.91,1.35,6,6,0,0,0-2,3.83Z" transform="translate(-0.87 -1)"/></svg>