<svg id="Layer_1" data-name="Layer 1" xmlns="http://www.w3.org/2000/svg" xmlns:xlink="http://www.w3.org/1999/xlink" viewBox="0 0 403.11 73.56"><defs><style>.cls-1{fill:url(#linear-gradient);}.cls-2{fill:#fff;}</style><linearGradient id="linear-gradient" x1="-3.95" y1="25.29" x2="60.29" y2="25.29" gradientTransform="matrix(1, -0.01, -0.01, -1, 4.04, 62.27)" gradientUnits="userSpaceOnUse"><stop offset="0" stop-color="#4e4ed6"/><stop offset="0.65" stop-color="#8258dc"/><stop offset="1" stop-color="#ad3bff"/></linearGradient></defs><title>logo_full_white_text_svg</title><path class="cls-1" d="M59.09,14.64,37.31,1.47a10.25,10.25,0,0,0-10.58,0L5.35,14.38A11.07,11.07,0,0,0,0,23.86v7.8a.87.87,0,0,0,.87.87l8.36-.06a.86.86,0,0,0,.86-.86h0V28.39a6,6,0,0,1,3-5.25l16.63-9.61a4.87,4.87,0,0,1,4.92,0l16.9,9.82a1.75,1.75,0,0,1,.6,2.4,1.72,1.72,0,0,1-.6.6l-7,4a2.13,2.13,0,0,1-2.13,0L34.3,25.57a3.93,3.93,0,0,0-4,0l-6.71,3.81a5.66,5.66,0,0,0-2.85,4.86l-.09,8.1a3.41,3.41,0,0,0,1.7,3l6.87,4a5.75,5.75,0,0,0,5.76,0l7.27-4.15a2.93,2.93,0,0,1,2.87,0l5.73,3.22a2.18,2.18,0,0,1,.82,3,2.22,2.22,0,0,1-.82.82L37.3,60.12a10.3,10.3,0,0,1-10.3,0L12.3,51.67A4.29,4.29,0,0,1,10.16,48V43.11a.86.86,0,0,0-.86-.86h0l-8.41.06a.87.87,0,0,0-.86.87v9.91a5.66,5.66,0,0,0,2.67,4.83L25.54,71.75a12.55,12.55,0,0,0,13,0l22.4-13.53a6.56,6.56,0,0,0,3.11-5.64V23.44A10.28,10.28,0,0,0,59.09,14.64ZM37.21,40a1.55,1.55,0,0,1-.77,1.36l-3.44,2a1.55,1.55,0,0,1-1.56,0L28,41.43a1.54,1.54,0,0,1-.79-1.35v-4A1.55,1.55,0,0,1,28,34.72l3.44-2a1.6,1.6,0,0,1,1.56,0l3.47,2a1.54,1.54,0,0,1,.79,1.35Z" transform="translate(0 0)"/><path class="cls-2" d="M84.39,27.21a17.37,17.37,0,0,1,6.76-6.84A19.6,19.6,0,0,1,101,17.92a18.85,18.85,0,0,1,11.54,3.55A17.18,17.18,0,0,1,119,31.18H108.81a8.24,8.24,0,0,0-3.21-3.65,9,9,0,0,0-4.72-1.25,8.82,8.82,0,0,0-6.9,3,11.47,11.47,0,0,0-2.64,7.92A11.53,11.53,0,0,0,94,45.14a8.83,8.83,0,0,0,6.9,3,9,9,0,0,0,4.72-1.24,8.14,8.14,0,0,0,3.21-3.61H119A16.94,16.94,0,0,1,112.55,53,19,19,0,0,1,101,56.46,19.57,19.57,0,0,1,91.16,54a17.36,17.36,0,0,1-6.76-6.81,20.16,20.16,0,0,1-2.43-10A20.29,20.29,0,0,1,84.39,27.21Z" transform="translate(0 0)"/><path class="cls-2" d="M137.86,27.21a10.5,10.5,0,0,1,5.39-1.42v9.74h-2.53A7.74,7.74,0,0,0,135.54,37c-1.15,1-1.72,2.72-1.72,5.2v14H124.6V26.11h9.22v5A12.15,12.15,0,0,1,137.86,27.21Z" transform="translate(0 0)"/><path class="cls-2" d="M175.86,43.36H155a6.24,6.24,0,0,0,1.81,4.28,5.47,5.47,0,0,0,3.9,1.49,4.85,4.85,0,0,0,4.8-2.91h9.81a13.5,13.5,0,0,1-2.72,5.31,13.67,13.67,0,0,1-4.93,3.72A15.94,15.94,0,0,1,161,56.62a16.11,16.11,0,0,1-7.87-1.89,13.44,13.44,0,0,1-5.39-5.39,16.58,16.58,0,0,1-1.94-8.19,16.83,16.83,0,0,1,1.91-8.2,13.3,13.3,0,0,1,5.4-5.42,17.47,17.47,0,0,1,15.69,0,13.23,13.23,0,0,1,5.31,5.23,16,16,0,0,1,1.89,7.9A22.2,22.2,0,0,1,175.86,43.36Zm-9.27-5.12A4.76,4.76,0,0,0,165,34.46a6,6,0,0,0-4-1.4,5.82,5.82,0,0,0-4,1.35,6,6,0,0,0-2,3.83Z" transform="translate(0 0)"/><path class="cls-2" d="M180.79,33a13,13,0,0,1,4.77-5.42,12.45,12.45,0,0,1,6.74-1.89,11.62,11.62,0,0,1,5.58,1.29,9.51,9.51,0,0,1,3.69,3.4V26.11h9.22V56.19h-9.22V51.93a10,10,0,0,1-3.74,3.39,11.52,11.52,0,0,1-5.58,1.3,12.28,12.28,0,0,1-6.69-1.92,13.21,13.21,0,0,1-4.77-5.44A18,18,0,0,1,179,41.09,17.92,17.92,0,0,1,180.79,33Zm18.87,2.75a6.49,6.49,0,0,0-9.18-.15l-.15.15a7.47,7.47,0,0,0-1.91,5.41,7.68,7.68,0,0,0,1.91,5.42,6.42,6.42,0,0,0,9.08.25c.08-.08.17-.16.25-.25a7.55,7.55,0,0,0,1.91-5.44,7.57,7.57,0,0,0-1.91-5.39Z" transform="translate(0 0)"/><path class="cls-2" d="M234.24,48.37v7.82h-4.69c-3.35,0-6-.82-7.82-2.45s-2.8-4.31-2.8-8v-12h-3.67V26.11h3.67V18.78h9.21v7.33h6v7.65h-6V45.84a2.52,2.52,0,0,0,.65,1.94,3.2,3.2,0,0,0,2.16.59Z" transform="translate(0 0)"/><path class="cls-2" d="M267.55,43.36H246.69a6.23,6.23,0,0,0,1.8,4.28,5.51,5.51,0,0,0,3.91,1.49,4.85,4.85,0,0,0,4.8-2.91H267a13.54,13.54,0,0,1-2.71,5.31,13.71,13.71,0,0,1-4.94,3.72,15.93,15.93,0,0,1-6.63,1.35,16.11,16.11,0,0,1-7.87-1.89,13.44,13.44,0,0,1-5.39-5.39,16.58,16.58,0,0,1-1.94-8.19,16.73,16.73,0,0,1,1.92-8.2,13.15,13.15,0,0,1,5.36-5.4,17.47,17.47,0,0,1,15.69,0,13.21,13.21,0,0,1,5.3,5.23,15.87,15.87,0,0,1,1.92,7.92A26.58,26.58,0,0,1,267.55,43.36Zm-9.27-5.12a4.78,4.78,0,0,0-1.62-3.78,6,6,0,0,0-4-1.4,5.86,5.86,0,0,0-3.91,1.35,6,6,0,0,0-2,3.83Z" transform="translate(0 0)"/><path class="cls-2" d="M300.75,40a9.91,9.91,0,0,1-1.32,13.37q-3.31,2.78-9.24,2.78H272.56V18.35h17q5.78,0,9,2.64a8.76,8.76,0,0,1,3.26,7.17,8.59,8.59,0,0,1-1.75,5.55,9,9,0,0,1-4.66,3.07A8.83,8.83,0,0,1,300.75,40Zm-19-6.38h6a5.35,5.35,0,0,0,3.48-1,3.58,3.58,0,0,0,1.21-2.94,3.64,3.64,0,0,0-1.21-3,5.22,5.22,0,0,0-3.48-1h-6Zm10.37,14a3.72,3.72,0,0,0,1.27-3,3.87,3.87,0,0,0-1.29-3.08,5.37,5.37,0,0,0-3.64-1.14h-6.68v8.36h6.79a5.46,5.46,0,0,0,3.58-1Z" transform="translate(0 0)"/><path class="cls-2" d="M308,33a13,13,0,0,1,4.77-5.42,12.45,12.45,0,0,1,6.74-1.89,11.62,11.62,0,0,1,5.58,1.29,9.51,9.51,0,0,1,3.69,3.4V26.11H338V56.19h-9.22V51.93A10,10,0,0,1,325,55.32a11.48,11.48,0,0,1-5.57,1.3,12.2,12.2,0,0,1-6.69-1.92A13.28,13.28,0,0,1,308,49.26a18.17,18.17,0,0,1-1.75-8.17A18,18,0,0,1,308,33Zm18.87,2.75a6.49,6.49,0,0,0-9.18-.15l-.15.15a7.47,7.47,0,0,0-1.91,5.41,7.68,7.68,0,0,0,1.91,5.42,6.42,6.42,0,0,0,9.08.25c.08-.08.17-.16.25-.25a7.55,7.55,0,0,0,1.91-5.44A7.57,7.57,0,0,0,326.87,35.7Z" transform="translate(0 0)"/><path class="cls-2" d="M349.91,55.27a11.92,11.92,0,0,1-4.85-3.69,9.71,9.71,0,0,1-2-5.26h9.11a3.56,3.56,0,0,0,1.46,2.54,5.19,5.19,0,0,0,3.18,1,4.49,4.49,0,0,0,2.67-.68,2.1,2.1,0,0,0,.94-1.75,2,2,0,0,0-1.35-1.9,27.61,27.61,0,0,0-4.36-1.38,39.28,39.28,0,0,1-5.39-1.62,9.17,9.17,0,0,1-3.72-2.64A7.18,7.18,0,0,1,344,35a8.32,8.32,0,0,1,1.43-4.71,9.46,9.46,0,0,1,4.21-3.37,15.92,15.92,0,0,1,6.6-1.24c3.77,0,6.75.93,8.92,2.8a11,11,0,0,1,3.75,7.44h-8.52A3.64,3.64,0,0,0,359,33.44a4.75,4.75,0,0,0-3-.92,4.24,4.24,0,0,0-2.48.62,2,2,0,0,0-.86,1.7A2.08,2.08,0,0,0,354,36.78a22.12,22.12,0,0,0,4.29,1.3,46.9,46.9,0,0,1,5.44,1.69,9.41,9.41,0,0,1,3.69,2.7,7.61,7.61,0,0,1,1.65,5,8,8,0,0,1-1.48,4.72,9.8,9.8,0,0,1-4.26,3.26,16.29,16.29,0,0,1-6.44,1.19A17.25,17.25,0,0,1,349.91,55.27Z" transform="translate(0 0)"/><path class="cls-2" d="M403,43.36H382.09a6.23,6.23,0,0,0,1.8,4.28,5.55,5.55,0,0,0,3.91,1.49,4.85,4.85,0,0,0,4.8-2.91h9.81a13.5,13.5,0,0,1-2.72,5.31,13.71,13.71,0,0,1-4.94,3.72,15.86,15.86,0,0,1-6.62,1.35,16.15,16.15,0,0,1-7.88-1.89,13.42,13.42,0,0,1-5.38-5.39,16.48,16.48,0,0,1-1.95-8.19,16.73,16.73,0,0,1,1.92-8.2,13.15,13.15,0,0,1,5.36-5.4,17.47,17.47,0,0,1,15.69,0,13.23,13.23,0,0,1,5.31,5.23,16,16,0,0,1,1.91,7.92A21.84,21.84,0,0,1,403,43.36Zm-9.27-5.12a4.78,4.78,0,0,0-1.62-3.78,6,6,0,0,0-4-1.4,5.86,5.86,0,0,0-3.91,1.35,6,6,0,0,0-2,3.83Z" transform="translate(0 0)"/></svg>