<svg width="381" height="252" viewBox="0 0 381 252" fill="none" xmlns="http://www.w3.org/2000/svg">
<path opacity="0.1" d="M-200.043 188.182C-193.664 109.043 -131.191 46.0124 -52.1114 38.9294L257.026 11.2408C320.684 5.53903 373.279 60.1996 365.131 123.591L327.671 415.011C316.237 503.964 235.091 566.97 146.078 556.008L-64.2323 530.107C-154.655 518.972 -220.224 438.534 -212.904 347.723L-200.043 188.182Z" fill="#4BF0EA"/>
<path d="M-243.545 231.983C-237.185 153.086 -174.904 90.2489 -96.0668 83.1877L213.071 55.499C276.411 49.8258 328.743 104.213 320.635 167.288L283.175 458.708C271.776 547.388 190.879 610.2 102.139 599.272L-108.171 573.371C-198.328 562.268 -263.704 482.067 -256.405 391.523L-243.545 231.983Z" stroke="#4BF0EA"/>
</svg>
