<svg width="525" height="449" viewBox="0 0 525 449" fill="none" xmlns="http://www.w3.org/2000/svg">
<path opacity="0.1" d="M110.98 11.2788C101.715 -67.507 150.724 -140.93 227.032 -162.585L393.231 -209.75C522.223 -246.356 653.273 -154.357 662.601 -20.6484L673.542 136.189C679.778 225.57 612.372 302.466 522.727 308.239L311.527 321.839C220.521 327.699 140.35 261.029 129.721 170.649L110.98 11.2788Z" fill="#FDD135"/>
<path d="M178.574 -110.566L369.893 -164.859C485.679 -197.717 603.312 -115.138 611.685 4.88206L624.443 187.759C630.659 276.865 563.46 353.525 474.09 359.28L262.89 372.88C172.152 378.723 92.2165 312.249 81.6194 222.135L62.8778 62.765C53.6412 -15.7791 102.5 -88.9773 178.574 -110.566Z" stroke="#FDD135"/>
</svg>
