<svg width="16" height="16" viewBox="0 0 16 16" fill="none" xmlns="http://www.w3.org/2000/svg">
<path d="M9 2.25V5.3669C9 5.75555 8.57601 5.99561 8.24275 5.79565L7.25725 5.20435C6.92399 5.00439 6.5 5.24445 6.5 5.6331V8.8669C6.5 9.25555 6.92399 9.49561 7.25725 9.29565L8.24275 8.70435C8.57601 8.50439 9 8.74445 9 9.1331V12.25" stroke="#C8D1DB" stroke-miterlimit="16"/>
<path d="M7.5 12.25V12.25C7.5 13.0784 6.82843 13.75 6 13.75V13.75C5.17157 13.75 4.5 13.0784 4.5 12.25V12.25" stroke="#4285F4" stroke-miterlimit="16" stroke-linecap="round"/>
<path d="M7.5 12.25H9" stroke="#4285F4" stroke-linecap="round"/>
<path d="M8.5 2.25H4C3.44772 2.25 3 2.69772 3 3.25V11.25C3 11.8023 3.44772 12.25 4 12.25H4.5" stroke="#4285F4" stroke-linecap="round"/>
<path d="M9 2.25H12C12.5523 2.25 13 2.69772 13 3.25V11.25C13 11.8023 12.5523 12.25 12 12.25H9" stroke="#C8D1DB" stroke-miterlimit="16" stroke-linecap="square" stroke-linejoin="round"/>
</svg>
