<svg width="16" height="16" viewBox="0 0 16 16" fill="none" xmlns="http://www.w3.org/2000/svg">
<rect x="2" y="1.25" width="7" height="12" fill="#4285F4"/>
<rect x="4" y="13.25" width="2" height="1" fill="#4285F4"/>
<path d="M9 1.75V6.1023C9 6.17304 8.92855 6.22142 8.86286 6.19514L6.63714 5.30486C6.57145 5.27858 6.5 5.32696 6.5 5.3977V9.1023C6.5 9.17304 6.57145 9.22142 6.63714 9.19514L8.86286 8.30486C8.92855 8.27858 9 8.32696 9 8.3977V13.25" stroke="#C8D1DB" stroke-miterlimit="16"/>
<path d="M6.5 8.25V6.25H9V8.25H6.5Z" stroke="#C8D1DB" stroke-linecap="square"/>
<path d="M5 15.25C6.10457 15.25 7 14.3546 7 13.25H6C6 13.8023 5.55228 14.25 5 14.25V15.25ZM5 14.25C4.44772 14.25 4 13.8023 4 13.25H3C3 14.3546 3.89543 15.25 5 15.25V14.25Z" fill="#4285F4"/>
<path d="M6.5 13.25H8.5" stroke="#4285F4" stroke-linecap="round"/>
<path d="M8.5 1.25H3C2.44772 1.25 2 1.69772 2 2.25V12.25C2 12.8023 2.44772 13.25 3 13.25H3.5" stroke="#4285F4" stroke-linecap="round"/>
<rect x="9" y="1.25" width="5" height="12" fill="#C8D1DB"/>
<path d="M9 0.75H8.5V1.75H9V0.75ZM9 12.75H8.5V13.75H9V12.75ZM9 1.75H13V0.75H9V1.75ZM13.5 2.25V12.25H14.5V2.25H13.5ZM13 12.75H9V13.75H13V12.75ZM13.5 12.25C13.5 12.5261 13.2761 12.75 13 12.75V13.75C13.8284 13.75 14.5 13.0784 14.5 12.25H13.5ZM13 1.75C13.2761 1.75 13.5 1.97386 13.5 2.25H14.5C14.5 1.42157 13.8284 0.75 13 0.75V1.75Z" fill="#C8D1DB"/>
<rect x="7" y="6.25" width="2" height="2" fill="#C8D1DB"/>
</svg>
