<svg width="16" height="16" viewBox="0 0 16 16" fill="none" xmlns="http://www.w3.org/2000/svg">
<path d="M5 12.75C5.27614 12.75 5.5 12.5261 5.5 12.25C5.5 11.9739 5.27614 11.75 5 11.75V12.75ZM8 11.75C7.72386 11.75 7.5 11.9739 7.5 12.25C7.5 12.5261 7.72386 12.75 8 12.75V11.75ZM4 2.75H12V1.75H4V2.75ZM12.5 3.25V11.25H13.5V3.25H12.5ZM3.5 11.25V3.25H2.5V11.25H3.5ZM5 11.75H4V12.75H5V11.75ZM12 11.75H8V12.75H12V11.75ZM2.5 11.25C2.5 12.0784 3.17157 12.75 4 12.75V11.75C3.72386 11.75 3.5 11.5261 3.5 11.25H2.5ZM12.5 11.25C12.5 11.5261 12.2761 11.75 12 11.75V12.75C12.8284 12.75 13.5 12.0784 13.5 11.25H12.5ZM12 2.75C12.2761 2.75 12.5 2.97386 12.5 3.25H13.5C13.5 2.42157 12.8284 1.75 12 1.75V2.75ZM4 1.75C3.17157 1.75 2.5 2.42157 2.5 3.25H3.5C3.5 2.97386 3.72386 2.75 4 2.75V1.75Z" fill="#262626"/>
<path d="M9 2.25V5.3669C9 5.75555 8.57601 5.99561 8.24275 5.79565L7.25725 5.20435C6.92399 5.00439 6.5 5.24445 6.5 5.6331V8.8669C6.5 9.25555 6.92399 9.49561 7.25725 9.29565L8.24275 8.70435C8.57601 8.50439 9 8.74445 9 9.1331V12.25" stroke="#262626" stroke-miterlimit="16"/>
<path d="M6.5 14.25C7.60457 14.25 8.5 13.3546 8.5 12.25H7.5C7.5 12.8023 7.05228 13.25 6.5 13.25V14.25ZM6.5 13.25C5.94772 13.25 5.5 12.8023 5.5 12.25H4.5C4.5 13.3546 5.39543 14.25 6.5 14.25V13.25Z" fill="#262626"/>
</svg>
