<svg width="16" height="16" viewBox="0 0 16 16" fill="none" xmlns="http://www.w3.org/2000/svg">
<rect width="16" height="16" rx="2" fill="black"/>
<rect x="3" y="2.25" width="6" height="10" fill="#4285F4"/>
<rect x="5" y="12.25" width="2" height="1" fill="#4285F4"/>
<rect x="8" y="6.25" width="1" height="2" fill="#C8D1DB"/>
<path d="M9 2.25V6.25L6.5 5.25V9.25L9 8.25V12.25" stroke="#C8D1DB" stroke-miterlimit="16"/>
<path d="M7.5 6.25V8.25" stroke="#C8D1DB" stroke-linecap="square"/>
<path d="M7.5 12.25V12.25C7.5 13.0784 6.82843 13.75 6 13.75V13.75C5.17157 13.75 4.5 13.0784 4.5 12.25V12.25" stroke="#4285F4" stroke-miterlimit="16" stroke-linecap="round"/>
<path d="M7.5 12.25H9" stroke="#4285F4" stroke-linecap="round"/>
<path d="M8.5 2.25H4C3.44772 2.25 3 2.69772 3 3.25V11.25C3 11.8023 3.44772 12.25 4 12.25H4.5" stroke="#4285F4" stroke-linecap="round"/>
<rect x="9" y="2.25" width="4" height="10" fill="#C8D1DB"/>
<path d="M9 1.75H8.5V2.75H9V1.75ZM9 11.75H8.5V12.75H9V11.75ZM9 2.75H12V1.75H9V2.75ZM12.5 3.25V11.25H13.5V3.25H12.5ZM12 11.75H9V12.75H12V11.75ZM12.5 11.25C12.5 11.5261 12.2761 11.75 12 11.75V12.75C12.8284 12.75 13.5 12.0784 13.5 11.25H12.5ZM12 2.75C12.2761 2.75 12.5 2.97386 12.5 3.25H13.5C13.5 2.42157 12.8284 1.75 12 1.75V2.75Z" fill="#C8D1DB"/>
</svg>
