<svg width="16" height="16" viewBox="0 0 16 16" fill="none" xmlns="http://www.w3.org/2000/svg">
<rect x="2" y="2" width="12" height="12" fill="#F7DF1E"/>
<path d="M8 7.5V11V11.2639C8 11.9466 7.44659 12.5 6.76393 12.5V12.5C6.29574 12.5 5.86774 12.2355 5.65836 11.8167L5.5 11.5" stroke="black"/>
<path d="M12.5 9V9C12.5 8.44772 12.0523 8 11.5 8H10.8536C10.6272 8 10.4101 8.08993 10.25 8.25V8.25C10.0899 8.41007 10 8.62718 10 8.85355V8.90127C10 9.26821 10.2073 9.60366 10.5355 9.76776L11.822 10.411C11.9399 10.4699 12.0475 10.5475 12.1407 10.6407L12.2163 10.7163C12.3979 10.8979 12.5 11.1443 12.5 11.4013V11.4013C12.5 11.7682 12.2927 12.1037 11.9645 12.2678L11.7764 12.3618C11.5946 12.4527 11.3942 12.5 11.191 12.5H11.0854C10.4202 12.5 9.81208 12.1242 9.51459 11.5292L9.5 11.5" stroke="black" stroke-miterlimit="16"/>
</svg>
