<svg width="16" height="16" viewBox="0 0 16 16" fill="none" xmlns="http://www.w3.org/2000/svg">
<path d="M6.625 4.25V9.62868C6.625 10.8003 5.67525 11.75 4.50368 11.75V11.75C3.94107 11.75 3.4015 11.5265 3.00368 11.1287L2.625 10.75" stroke="black" stroke-width="1.5" stroke-miterlimit="16"/>
<path d="M13.375 6.25L13.0821 5.95711C12.6294 5.50435 12.0153 5.25 11.375 5.25H11.0821C10.6294 5.25 10.1951 5.42986 9.875 5.75L9.74265 5.88235C9.50725 6.11775 9.375 6.43703 9.375 6.76994V6.76994C9.375 7.34593 9.76701 7.848 10.3258 7.9877L12.1073 8.43307C12.8523 8.61933 13.375 9.28876 13.375 10.0567V10.0567C13.375 10.5006 13.1938 10.9312 12.8799 11.2451V11.2451C12.5598 11.5652 12.1206 11.75 11.6679 11.75H11.375C10.7347 11.75 10.1206 11.4956 9.66789 11.0429L8.875 10.25" stroke="black" stroke-width="1.5" stroke-miterlimit="16"/>
</svg>
