<svg width="16" height="16" viewBox="0 0 16 16" fill="none" xmlns="http://www.w3.org/2000/svg">
<rect width="16" height="16" rx="2" fill="#F7DF1E"/>
<path d="M7.25 6.5V11.8787C7.25 13.0503 6.30025 14 5.12868 14V14C4.56607 14 4.0265 13.7765 3.62868 13.3787L3.25 13" stroke="white" stroke-width="1.5" stroke-miterlimit="16"/>
<path d="M14 8.5L13.7071 8.20711C13.2544 7.75435 12.6403 7.5 12 7.5H11.7071C11.2544 7.5 10.8201 7.67986 10.5 8L10.3677 8.13235C10.1322 8.36775 10 8.68703 10 9.01994V9.01994C10 9.59593 10.392 10.098 10.9508 10.2377L12.7323 10.6831C13.4773 10.8693 14 11.5388 14 12.3067V12.3067C14 12.7506 13.8188 13.1812 13.5049 13.4951V13.4951C13.1848 13.8152 12.7456 14 12.2929 14H12C11.3597 14 10.7456 13.7456 10.2929 13.2929L9.5 12.5" stroke="white" stroke-width="1.5" stroke-miterlimit="16"/>
</svg>
