<svg id="Layer_1" data-name="Layer 1" xmlns="http://www.w3.org/2000/svg" xmlns:xlink="http://www.w3.org/1999/xlink" viewBox="0 0 688.02 790.18"><defs><style>.cls-1{fill:url(#linear-gradient);}</style><linearGradient id="linear-gradient" x1="54.97" y1="400.58" x2="745.15" y2="400.58" gradientTransform="translate(-2.79 2.38) rotate(-0.41)" gradientUnits="userSpaceOnUse"><stop offset="0" stop-color="#4e4ed6"/><stop offset="0.65" stop-color="#8258dc"/><stop offset="1" stop-color="#ad3bff"/></linearGradient></defs><title>logo no text</title><path class="cls-1" d="M690.89,162.29,457,20.85a109.9,109.9,0,0,0-113.64,0L113.73,159.45a119,119,0,0,0-57.5,101.91l0,83.75a9.31,9.31,0,0,0,9.37,9.31l89.78-.64a9.31,9.31,0,0,0,9.24-9.35L164.49,310a64.74,64.74,0,0,1,32.37-56.33l178.55-103a52.78,52.78,0,0,1,52.9.08L609.86,256.15a18.83,18.83,0,0,1-.05,32.59l-75.09,43.34a22.7,22.7,0,0,1-22.88-.11L424.72,280.6a42.47,42.47,0,0,0-42.57-.33l-72.09,41a60.7,60.7,0,0,0-30.67,52.13l-.9,87a36.68,36.68,0,0,0,18.22,32.08l73.82,43a61.92,61.92,0,0,0,61.84.26l78.16-44.6A31.22,31.22,0,0,1,541.3,491l61.57,34.58a23.46,23.46,0,0,1,.23,40.77L456.93,650.74a110.88,110.88,0,0,1-110.72.08L188.39,560a45.88,45.88,0,0,1-23-39.56l-.23-52.36a9.31,9.31,0,0,0-9.37-9.27l-90.29.65a9.3,9.3,0,0,0-9.24,9.31V575.3c0,21.39,10.92,41.17,28.63,51.88L330.56,775.71a134.9,134.9,0,0,0,139.53,0L710.85,630.39c20.67-12.49,33.41-35.57,33.4-60.56l0-313A110.5,110.5,0,0,0,690.89,162.29ZM455.94,434.8a16.72,16.72,0,0,1-8.26,14.56l-37,21.72a16.74,16.74,0,0,1-16.74.12L356.62,450a16.75,16.75,0,0,1-8.47-14.44l-.31-42.91a16.75,16.75,0,0,1,8.27-14.56l37-21.71a16.72,16.72,0,0,1,16.74-.12l37.31,21.18a16.78,16.78,0,0,1,8.48,14.44Z" transform="translate(-56.23 -5)"/></svg>