<svg width="24" height="21" viewBox="0 0 24 21" fill="none" xmlns="http://www.w3.org/2000/svg">
<path d="M20.3178 7.58402V5.41715C20.3178 4.22538 19.3554 3.25029 18.1791 3.25029H14.971C14.971 1.4518 13.5381 0 11.763 0C9.98782 0 8.55488 1.4518 8.55488 3.25029H5.3468C4.1705 3.25029 3.20808 4.22538 3.20808 5.41715V7.58402C1.43294 7.58402 0 9.03581 0 10.8343C0 12.6328 1.43294 14.0846 3.20808 14.0846V18.4183C3.20808 19.6101 4.1705 20.5852 5.3468 20.5852H18.1791C19.3554 20.5852 20.3178 19.6101 20.3178 18.4183V14.0846C22.093 14.0846 23.5259 12.6328 23.5259 10.8343C23.5259 9.03581 22.093 7.58402 20.3178 7.58402ZM18.1791 18.4183H5.3468V5.41715H18.1791V18.4183ZM8.55488 11.9177C7.66731 11.9177 6.95084 11.1918 6.95084 10.2926C6.95084 9.39335 7.66731 8.66745 8.55488 8.66745C9.44245 8.66745 10.1589 9.39335 10.1589 10.2926C10.1589 11.1918 9.44245 11.9177 8.55488 11.9177ZM16.5751 10.2926C16.5751 11.1918 15.8586 11.9177 14.971 11.9177C14.0835 11.9177 13.367 11.1918 13.367 10.2926C13.367 9.39335 14.0835 8.66745 14.971 8.66745C15.8586 8.66745 16.5751 9.39335 16.5751 10.2926ZM7.48552 14.0846H16.0404V16.2515H7.48552V14.0846Z" fill="white"/>
</svg>
