<svg width="27" height="27" viewBox="0 0 27 27" fill="none" xmlns="http://www.w3.org/2000/svg">
<path d="M16.5603 7.92318L13.2034 11.2801L9.84641 7.92318L8.01889 9.75071L11.3758 13.1077L8.01889 16.4646L9.84641 18.2921L13.2034 14.9352L16.5603 18.2921L18.3878 16.4646L15.0309 13.1077L18.3878 9.75071L16.5603 7.92318ZM13.2034 0.146484C6.03583 0.146484 0.242188 5.94013 0.242188 13.1077C0.242188 20.2752 6.03583 26.0688 13.2034 26.0688C20.3709 26.0688 26.1645 20.2752 26.1645 13.1077C26.1645 5.94013 20.3709 0.146484 13.2034 0.146484ZM13.2034 23.4766C7.48748 23.4766 2.83442 18.8235 2.83442 13.1077C2.83442 7.39178 7.48748 2.73872 13.2034 2.73872C18.9192 2.73872 23.5723 7.39178 23.5723 13.1077C23.5723 18.8235 18.9192 23.4766 13.2034 23.4766Z" fill="#FA6F6F"/>
</svg>
