<svg width="27" height="17" viewBox="0 0 27 17" fill="none" xmlns="http://www.w3.org/2000/svg">
<path d="M21.3388 6.38325C20.5889 2.73719 17.2474 0 13.2333 0C10.0463 0 7.28936 1.7332 5.91089 4.26959C2.59153 4.60777 0 7.29212 0 10.5683C0 14.0664 2.96647 16.9093 6.61667 16.9093H20.9528C23.9964 16.9093 26.4667 14.542 26.4667 11.6251C26.4667 8.83509 24.206 6.57347 21.3388 6.38325ZM20.9528 14.7956H6.61667C4.17953 14.7956 2.20556 12.9039 2.20556 10.5683C2.20556 8.2327 4.17953 6.34097 6.61667 6.34097C9.05381 6.34097 11.0278 8.2327 11.0278 10.5683H13.2333C13.2333 7.65144 11.1822 5.1996 8.38111 4.45982C9.49492 3.04367 11.2483 2.11366 13.2333 2.11366C16.5748 2.11366 19.2986 4.72402 19.2986 7.92622V8.45463H20.9528C22.7724 8.45463 24.2611 9.88135 24.2611 11.6251C24.2611 13.3689 22.7724 14.7956 20.9528 14.7956Z" fill="white"/>
</svg>
