<svg width="24" height="17" viewBox="0 0 24 17" fill="none" xmlns="http://www.w3.org/2000/svg">
<path d="M14.2367 7.17382L11.9911 6.32453L14.2367 5.47523L15.2614 3.61401L16.286 5.47523L18.5316 6.32453L16.286 7.17382L15.2614 9.03504L14.2367 7.17382ZM3.27029 10.842L4.29498 8.98083L6.54058 8.13153L4.29498 7.28224L3.27029 5.42102L2.2456 7.28224L0 8.13153L2.2456 8.98083L3.27029 10.842ZM8.17573 6.32453L9.36393 4.14708L11.9911 3.16226L9.36393 2.17744L8.17573 0L6.98752 2.17744L4.36039 3.16226L6.98752 4.14708L8.17573 6.32453ZM3.81534 16.7148L10.3559 11.2848L14.7163 14.8988L23.9821 6.26128L22.4451 4.98734L14.7163 12.1883L10.3559 8.57425L2.18019 15.3596L3.81534 16.7148Z" fill="white"/>
</svg>
