<svg width="23" height="22" viewBox="0 0 23 22" fill="none" xmlns="http://www.w3.org/2000/svg">
<path d="M19.9976 2.18867L19.9983 2.18935C21.1521 3.33883 21.5307 4.73999 21.6103 6.42046L22.1097 6.39681L21.6106 6.42514C21.7115 8.20374 21.7115 13.5675 21.6105 15.3461L21.6104 15.3494C21.5261 17.031 21.1473 18.4329 19.9976 19.5826L19.9969 19.5832C18.8474 20.7371 17.4463 21.1157 15.7658 21.1953L15.7611 21.1955C13.9825 21.2965 8.61389 21.2965 6.8353 21.1955L6.832 21.1954C5.15106 21.1111 3.75322 20.7326 2.59816 19.5819C1.44429 18.4324 1.06569 17.0313 0.986111 15.3508L0.986133 15.3508L0.985867 15.3461C0.884919 13.5675 0.884919 8.19888 0.985867 6.42028L0.985878 6.42028L0.986043 6.41699C1.07041 4.73424 1.44475 3.3335 2.59816 2.18449C3.75301 1.03402 5.15537 0.655505 6.83068 0.575951L6.83068 0.575972L6.8353 0.575711C8.61389 0.474763 13.9825 0.474763 15.7611 0.575711V0.575721L15.7644 0.575887C17.4461 0.660203 18.8479 1.03897 19.9976 2.18867ZM17.9024 19.8374L17.9042 19.8367C18.9875 19.4023 19.8222 18.5683 20.2522 17.488C20.5735 16.6806 20.6812 15.3863 20.7191 14.1682C20.7468 13.2787 20.7377 12.3711 20.7303 11.644C20.7274 11.3596 20.7248 11.1029 20.7248 10.8856C20.7248 10.6683 20.7274 10.4116 20.7303 10.1273C20.7377 9.40068 20.7468 8.49386 20.7191 7.60484C20.6812 6.38707 20.5734 5.09329 20.2524 4.28383L20.2517 4.28207C19.8173 3.19878 18.9833 2.36402 17.903 1.93408L17.9016 1.93354C17.0951 1.61531 15.8017 1.50752 14.5835 1.46897C13.6873 1.4406 12.7734 1.44936 12.0436 1.45635C11.7655 1.45902 11.5141 1.46143 11.3006 1.46143C11.0834 1.46143 10.8266 1.45883 10.5423 1.45595C9.8157 1.4486 8.90888 1.43942 8.01986 1.46714C6.80208 1.5051 5.5083 1.61283 4.69885 1.93387L4.69885 1.93387L4.69708 1.93457C3.61379 2.36899 2.77903 3.20295 2.3491 4.28329L2.34856 4.28466C2.03033 5.09121 1.92254 6.38456 1.88398 7.60278C1.85561 8.49901 1.86437 9.41291 1.87137 10.1427C1.87403 10.4208 1.87644 10.6722 1.87644 10.8856C1.87644 11.1029 1.87384 11.3596 1.87097 11.6439C1.86361 12.3706 1.85444 13.2774 1.88215 14.1664C1.92011 15.3842 2.02785 16.678 2.34888 17.4874L2.34959 17.4892C2.78401 18.5725 3.61796 19.4072 4.69831 19.8372L4.69967 19.8377C5.50623 20.1559 6.79958 20.2637 8.0178 20.3023C8.91402 20.3306 9.82793 20.3219 10.5577 20.3149C10.8358 20.3122 11.0872 20.3098 11.3006 20.3098C11.5179 20.3098 11.7746 20.3124 12.0589 20.3153C12.7856 20.3226 13.6924 20.3318 14.5814 20.3041C15.7992 20.2661 17.093 20.1584 17.9024 19.8374ZM6.21876 10.8856C6.21876 8.07206 8.48707 5.80375 11.3006 5.80375C14.1142 5.80375 16.3825 8.07206 16.3825 10.8856C16.3825 13.6992 14.1142 15.9675 11.3006 15.9675C8.48707 15.9675 6.21876 13.6992 6.21876 10.8856ZM7.17169 10.8856C7.17169 13.1637 9.02828 15.0146 11.3006 15.0146C13.573 15.0146 15.4296 13.1637 15.4296 10.8856C15.4296 8.60797 13.5783 6.75668 11.3006 6.75668C9.02299 6.75668 7.17169 8.60797 7.17169 10.8856ZM17.9128 5.07542C17.9128 5.52191 17.5549 5.87738 17.1108 5.87738C16.6644 5.87738 16.3089 5.51949 16.3089 5.07542C16.3089 4.63258 16.668 4.27347 17.1108 4.27347C17.5537 4.27347 17.9128 4.63258 17.9128 5.07542Z" fill="#8B8B8B" stroke="#8B8B8B"/>
</svg>
