<svg width="14" height="11" viewBox="0 0 14 11" fill="none" xmlns="http://www.w3.org/2000/svg">
<path d="M5.15006 0.582031V1.46354C4.60191 1.25274 4.01413 1.14415 3.42635 1.14415C2.24418 1.14415 1.06201 1.57852 0.157227 2.45364L2.35645 4.58076H3.08953V5.2898C3.6575 5.83915 4.39718 6.1266 5.14346 6.15854V7.60855H3.16878V9.52488C3.16878 10.2275 3.76316 10.8024 4.48964 10.8024H11.0939C12.1902 10.8024 13.0752 9.94647 13.0752 8.8861V0.582031H5.15006ZM4.41699 4.67658V3.30321H2.91121L2.22437 2.63889C2.60081 2.49836 3.01028 2.4217 3.42635 2.4217C4.31132 2.4217 5.13686 2.75387 5.76426 3.35431L6.69547 4.25499L6.56338 4.38274C6.22656 4.70852 5.77747 4.89376 5.29536 4.89376C4.98496 4.89376 4.68116 4.81711 4.41699 4.67658ZM11.7543 8.8861C11.7543 9.23743 11.4572 9.52488 11.0939 9.52488C10.7307 9.52488 10.4335 9.23743 10.4335 8.8861V7.60855H6.47092V5.95413C6.84736 5.80721 7.19739 5.59003 7.50119 5.29619L7.63327 5.16843L9.50229 6.96978H10.4335V6.06911L6.47092 2.25562V1.85958H11.7543V8.8861Z" fill="white"/>
</svg>
