<svg width="23" height="22" viewBox="0 0 23 22" fill="none" xmlns="http://www.w3.org/2000/svg">
<path d="M5.55327 21.7635H1.04113V7.23312H5.55327V21.7635ZM3.29477 5.25104C1.85194 5.25104 0.681641 4.05597 0.681641 2.61313C0.681641 1.92009 0.956952 1.25543 1.44701 0.765369C1.93707 0.275311 2.60173 0 3.29477 0C3.98782 0 4.65248 0.275311 5.14254 0.765369C5.63259 1.25543 5.90791 1.92009 5.90791 2.61313C5.90791 4.05597 4.73712 5.25104 3.29477 5.25104ZM22.4407 21.7635H17.9383V14.6902C17.9383 13.0045 17.9043 10.8426 15.5924 10.8426C13.2464 10.8426 12.8869 12.6741 12.8869 14.5687V21.7635H8.37967V7.23312H12.7072V9.21519H12.7704C13.3727 8.07355 14.8442 6.86876 17.0396 6.86876C21.6061 6.86876 22.4456 9.87588 22.4456 13.7817V21.7635H22.4407Z" fill="#8B8B8B"/>
</svg>
