<svg width="379" height="364" viewBox="0 0 379 364" fill="none" xmlns="http://www.w3.org/2000/svg">
<path d="M17.5317 90.9566C50.6068 44.6647 198.526 41.6643 268.351 45.9506C291.32 46.978 327.152 79.0163 353.796 146.985C380.44 214.953 296.833 240.671 214.146 310.476C131.458 380.281 2.83161 296.699 17.5317 231.486C32.2317 166.273 -23.8122 148.822 17.5317 90.9566Z" fill="#F3F3F3"/>
<g clip-path="url(#clip0_705_2)">
<path d="M58.5419 161.112L52.7382 151.557C52.7382 151.557 58.6517 146.244 51.2958 140.599C43.9399 134.954 33.987 128.421 33.987 128.421C33.987 128.421 32.041 126.2 31.14 128.799C30.239 131.399 35.6187 137.701 35.6187 137.701C35.6187 137.701 30.1103 142.961 12.2828 145.712C-5.54473 148.462 -1.10016 160.262 7.64512 160.765C16.3904 161.267 37.4207 157.689 37.4207 157.689L42.047 174.001L54.8166 167.377L58.5419 161.112Z" fill="#F9E4D7"/>
<path d="M257.007 158.648L261.171 149.202C261.171 149.202 255.114 145.046 261.171 139.001C267.229 132.955 275.557 125.776 275.557 125.776C275.557 125.776 277.072 123.509 278.208 125.776C279.343 128.043 275.179 134.467 275.179 134.467C275.179 134.467 280.858 138.623 297.515 139.001C314.173 139.378 311.523 150.714 303.573 152.225C295.622 153.736 275.936 152.981 275.936 152.981L273.665 168.472L261.171 163.938L257.007 158.648Z" fill="#F9E4D7"/>
<path d="M150.242 121.243L148.713 144.291L160.025 171.874L181.116 163.561V147.692L183.562 122.754L150.242 121.243Z" fill="#F9E4D7"/>
<path d="M135.284 97.9448L128.666 71.8736C128.666 71.8736 129.329 44.4649 150.499 45.4549C150.499 45.4549 162.076 40.8301 174.316 52.3883C174.316 52.3883 176.966 53.707 186.555 51.0658C196.145 48.4247 206.071 53.3782 202.766 63.2815C199.461 73.1847 192.51 106.529 192.51 106.529L136.938 102.57L135.284 97.9448Z" fill="#5B393D"/>
<path d="M138.133 103.106L142.676 114.441L148.733 116.33L142.676 103.106H138.133Z" fill="#5B393D"/>
<path d="M141.073 101.414C141.073 101.414 143.056 94.1516 135.118 95.1416C127.179 96.1315 131.809 111.65 141.073 110.656C141.073 110.656 145.373 125.845 154.967 131.789C164.56 137.732 172.828 140.702 181.089 135.087C189.35 129.472 193.162 113.463 192.825 110.493C192.488 107.523 195.308 75.0026 195.308 75.0026L153.975 61.1357L141.073 101.414Z" fill="#F9E4D7"/>
<path d="M140.905 105.87C140.905 105.87 141.939 107.139 145.206 105.87C151.161 103.561 153.535 87.3025 150.506 83.422C150.506 83.422 177.632 69.2265 192.529 81.7709L195.179 89.7055L195.842 68.2479L153.145 56.3496L141.238 78.801L140.905 105.87Z" fill="#5B393D"/>
<path d="M151.003 138.624C151.003 138.624 119.581 142.78 113.145 149.203C106.709 155.626 91.5655 176.408 85.5081 185.854C79.4508 195.3 80.5865 193.789 80.5865 193.789L59.0073 154.115C59.0073 154.115 41.2139 166.206 41.2139 172.252C41.2139 178.297 74.5292 236.863 85.5081 234.973C96.487 233.084 115.795 203.99 115.795 203.99L121.474 279.181L152.517 295.05L213.469 267.468C213.469 267.468 215.362 217.593 212.334 202.857L225.205 222.127C225.205 222.127 237.699 241.019 252.085 226.661C266.471 212.303 278.207 165.45 278.207 165.45L257.006 152.982L240.727 193.033C240.727 193.033 230.127 169.984 217.634 156.004C205.141 142.024 181.888 139.829 181.888 139.829C181.888 139.829 179.397 154.115 168.039 154.115C156.682 154.115 151.003 138.624 151.003 138.624Z" fill="#6CD8D0"/>
<path d="M378.91 286.568V297.695L369.589 297.095L359.98 282.959L378.91 286.568Z" fill="#B2D8D1"/>
<path d="M38.6445 288.672V301.477L44.2211 305.63L49.3282 294.412L38.6445 288.672Z" fill="#B2D8D1"/>
<path d="M314.929 245.53L41.9704 295.73C41.9704 295.73 35.913 298.258 39.6989 302.592C43.4847 306.925 87.0218 357.488 87.0218 357.488C87.0218 357.488 93.0792 365.075 108.223 362.544C123.366 360.012 376.638 301.148 376.638 301.148C376.638 301.148 381.938 297.899 376.638 292.836C371.338 287.773 321.744 245.522 321.744 245.522C321.744 245.522 320.608 244.445 314.929 245.53Z" fill="#B2D8D1"/>
<path d="M300.922 240.262L41.9704 285.225C41.9704 285.225 35.913 287.87 39.6989 292.404C43.4847 296.938 87.0218 349.836 87.0218 349.836C87.0218 349.836 93.0792 357.771 108.223 355.126C123.366 352.481 376.638 290.893 376.638 290.893C376.638 290.893 381.938 287.492 376.638 282.203C371.338 276.913 307.736 240.262 307.736 240.262C307.736 240.262 306.6 239.129 300.922 240.262Z" fill="#CCFFF8"/>
<path d="M120.717 290.515L121.474 335.857C121.474 335.857 157.439 325.277 171.068 326.033L160.468 281.447C160.468 281.447 130.56 284.848 120.717 290.515Z" fill="white"/>
<path d="M171.068 326.41C186.211 308.651 225.205 312.43 225.205 312.43L194.919 273.89C177.882 273.134 160.089 281.447 160.089 281.447L171.068 326.41Z" fill="white"/>
<path d="M302.017 256.511L241.236 267.367C241.209 267.371 241.184 267.384 241.165 267.403C241.145 267.422 241.133 267.447 241.128 267.474C241.124 267.501 241.129 267.528 241.141 267.553C241.154 267.577 241.174 267.596 241.198 267.609L283.092 290.495C283.119 290.503 283.148 290.503 283.175 290.495L345.604 279.235C345.631 279.23 345.655 279.217 345.674 279.198C345.693 279.178 345.705 279.153 345.709 279.126C345.712 279.099 345.708 279.072 345.695 279.048C345.682 279.024 345.662 279.005 345.638 278.993L302.108 256.53C302.081 256.515 302.049 256.509 302.017 256.511V256.511Z" fill="#0D2B3F"/>
<path d="M283.126 289.549V238.711C283.127 238.513 283.2 238.323 283.331 238.175C283.461 238.027 283.642 237.931 283.838 237.906L345.058 230.179C345.173 230.164 345.289 230.173 345.399 230.207C345.509 230.24 345.611 230.297 345.697 230.372C345.784 230.448 345.853 230.542 345.9 230.647C345.947 230.751 345.971 230.865 345.971 230.98V278.505C345.971 278.695 345.905 278.879 345.783 279.024C345.661 279.17 345.492 279.268 345.305 279.302L284.084 290.343C283.967 290.364 283.847 290.36 283.732 290.33C283.617 290.3 283.51 290.246 283.419 290.17C283.327 290.094 283.254 289.999 283.203 289.892C283.153 289.785 283.126 289.668 283.126 289.549V289.549Z" fill="#2C4250"/>
<path d="M282.752 290.894L241.293 268.601C241.281 268.595 241.271 268.586 241.263 268.574C241.255 268.563 241.25 268.551 241.248 268.537L241.131 267.653C241.129 267.637 241.131 267.621 241.138 267.606C241.144 267.592 241.155 267.579 241.168 267.57C241.182 267.561 241.197 267.556 241.213 267.555C241.229 267.555 241.245 267.558 241.259 267.566L283.131 290.516C283.146 290.642 283.146 290.769 283.131 290.894H282.752Z" fill="#061F33"/>
<path d="M111.818 299.678V321.404L110.398 323.766L108.979 321.404V299.678L110.398 299.206L111.818 299.678Z" fill="#F9FC7C"/>
<path d="M108.979 321.404C109.404 321.138 109.896 320.997 110.398 320.997C110.9 320.997 111.392 321.138 111.818 321.404L110.398 323.766L108.979 321.404Z" fill="#FAFCDB"/>
<path d="M110.874 323.01C110.836 322.914 110.773 322.829 110.692 322.765C110.61 322.701 110.513 322.659 110.411 322.645C110.308 322.63 110.203 322.643 110.107 322.682C110.011 322.721 109.927 322.785 109.863 322.867L110.401 323.766L110.874 323.01Z" fill="#444444"/>
<path d="M93.0801 299.206L86.2656 304.118V307.141L89.6729 310.163L97.6231 303.74V301.095L94.973 298.828L93.0801 299.206Z" fill="#D87C75"/>
<path d="M90.5811 301.008L94.2155 303.74V306.483L97.6227 303.74V301.095L94.9726 298.828L93.0797 299.206L90.5811 301.008Z" fill="#3594B4"/>
<path d="M86.2656 304.117L89.6729 306.762L94.2159 303.739L90.6534 300.955L86.2656 304.117Z" fill="#ED897D"/>
<path d="M160.089 281.447L171.068 326.033" stroke="#E0E0E0" stroke-width="1.00798" stroke-miterlimit="10"/>
<path d="M214.036 308.463C214.036 308.463 189.784 305.44 175.231 316.02" stroke="#E0E0E0" stroke-width="6.24947" stroke-miterlimit="10" stroke-linecap="round"/>
<path d="M210.25 303.551C210.25 303.551 187.535 300.528 173.906 311.108" stroke="#E0E0E0" stroke-width="6.04787" stroke-miterlimit="10" stroke-linecap="round"/>
<path d="M205.143 294.271C205.143 294.271 183.496 291.392 170.503 301.477" stroke="#E0E0E0" stroke-width="5.76564" stroke-miterlimit="10" stroke-linecap="round"/>
<path d="M208.359 299.018C208.359 299.018 185.644 295.995 172.015 306.575" stroke="#E0E0E0" stroke-width="6.04787" stroke-miterlimit="10" stroke-linecap="round"/>
<path d="M164.066 322.066C164.066 322.066 148.544 319.799 127.722 328.489" stroke="#E0E0E0" stroke-width="6.24947" stroke-miterlimit="10" stroke-linecap="round"/>
<path d="M163.688 316.775C163.688 316.775 148.166 314.508 127.344 323.198" stroke="#E0E0E0" stroke-width="6.24947" stroke-miterlimit="10" stroke-linecap="round"/>
<path d="M163.688 309.975C163.688 309.975 148.166 307.707 127.344 316.398" stroke="#E0E0E0" stroke-width="6.24947" stroke-miterlimit="10" stroke-linecap="round"/>
<path d="M283.126 290.893L345.971 279.558V278.568L283.126 290.115V290.893Z" fill="#22333D"/>
</g>
<path d="M244.506 29.9131C249.493 30.5852 253.313 32.4914 255.965 35.6317C258.672 38.7305 259.705 42.6533 259.066 47.4003C258.432 52.0994 256.437 55.492 253.08 57.5782C249.73 59.6165 245.561 60.2996 240.575 59.6275L239.54 65.1269L230.694 63.9345L231.982 51.6589L235.219 52.0951C239.39 52.6574 242.677 52.539 245.08 51.7399C247.482 50.9408 248.88 49.0788 249.274 46.1539C249.559 44.0441 249.161 42.2819 248.083 40.8671C247.052 39.4589 245.482 38.6126 243.372 38.3282C241.166 38.031 239.359 38.3977 237.951 39.4284C236.591 40.4655 235.769 42.039 235.484 44.1488L225.99 42.8692C226.336 39.9378 227.312 37.4086 228.917 35.2815C230.522 33.1544 232.658 31.6116 235.326 30.653C238.042 29.7009 241.102 29.4543 244.506 29.9131ZM232.764 81.7157C230.942 81.4701 229.506 80.7151 228.456 79.4507C227.46 78.1448 227.076 76.6528 227.302 74.9745C227.528 73.2963 228.291 71.9833 229.59 71.0356C230.944 70.0464 232.532 69.6746 234.354 69.9201C236.128 70.1593 237.513 70.9318 238.509 72.2376C239.511 73.4956 239.899 74.9637 239.673 76.6419C239.447 78.3201 238.681 79.6571 237.375 80.6528C236.075 81.6005 234.538 81.9548 232.764 81.7157Z" fill="#3A3A3A"/>
<path d="M245.549 32.1182C250.536 32.7903 254.356 34.6965 257.008 37.8368C259.715 40.9355 260.748 44.8584 260.109 49.6054C259.475 54.3045 257.48 57.6971 254.123 59.7833C250.773 61.8216 246.604 62.5047 241.618 61.8325L240.583 67.3319L231.737 66.1396L233.025 53.864L236.262 54.3002C240.433 54.8625 243.72 54.7441 246.122 53.945C248.525 53.1459 249.923 51.2839 250.317 48.359C250.602 46.2492 250.204 44.4869 249.126 43.0722C248.095 41.664 246.525 40.8177 244.415 40.5333C242.209 40.236 240.402 40.6027 238.994 41.6334C237.634 42.6706 236.812 44.2441 236.527 46.3539L227.033 45.0743C227.379 42.1429 228.355 39.6137 229.96 37.4866C231.565 35.3595 233.701 33.8167 236.369 32.8581C239.085 31.906 242.145 31.6593 245.549 32.1182ZM233.807 83.9208C231.985 83.6752 230.549 82.9202 229.499 81.6558C228.503 80.3499 228.119 78.8578 228.345 77.1796C228.571 75.5014 229.334 74.1884 230.633 73.2407C231.987 72.2514 233.575 71.8796 235.397 72.1252C237.171 72.3643 238.556 73.1368 239.552 74.4427C240.554 75.7007 240.942 77.1687 240.716 78.847C240.49 80.5252 239.723 81.8622 238.418 82.8578C237.118 83.8056 235.581 84.1599 233.807 83.9208Z" fill="#585858"/>
<path d="M280.5 80.6968C283.394 82.3933 285.252 84.5485 286.076 87.1623C286.943 89.7646 286.569 92.4431 284.954 95.1979C283.356 97.9249 281.256 99.498 278.654 99.9173C276.069 100.309 273.33 99.6562 270.436 97.9597L268.385 101.076L263.251 98.066L267.202 90.848L269.08 91.9491C271.501 93.3683 273.553 94.1412 275.236 94.2679C276.919 94.3946 278.258 93.6093 279.253 91.9119C279.971 90.6875 280.18 89.5015 279.881 88.3539C279.609 87.2226 278.861 86.2981 277.637 85.5803C276.357 84.8299 275.151 84.5905 274.02 84.862C272.917 85.1499 272.006 85.906 271.288 87.1303L265.779 83.9004C266.746 82.1867 267.997 80.8822 269.531 79.987C271.065 79.0918 272.776 78.6927 274.664 78.7896C276.579 78.9029 278.524 79.5386 280.5 80.6968ZM259.949 109.534C258.892 108.914 258.203 108.081 257.882 107.033C257.606 105.973 257.753 104.957 258.324 103.983C258.895 103.009 259.702 102.398 260.745 102.149C261.832 101.889 262.904 102.069 263.962 102.689C264.991 103.293 265.644 104.124 265.921 105.183C266.213 106.215 266.074 107.218 265.503 108.192C264.932 109.166 264.117 109.791 263.058 110.067C262.015 110.315 260.979 110.138 259.949 109.534Z" fill="#3A3A3A"/>
<path d="M280.5 82.7139C283.394 84.4104 285.252 86.5656 286.076 89.1794C286.943 91.7817 286.569 94.4602 284.954 97.215C283.356 99.942 281.256 101.515 278.654 101.934C276.069 102.326 273.33 101.673 270.436 99.9768L268.385 103.093L263.251 100.083L267.202 92.8651L269.08 93.9662C271.501 95.3854 273.553 96.1583 275.236 96.285C276.919 96.4117 278.258 95.6264 279.253 93.929C279.971 92.7046 280.18 91.5186 279.881 90.371C279.609 89.2397 278.861 88.3152 277.637 87.5974C276.357 86.847 275.151 86.6076 274.02 86.8791C272.917 87.167 272.006 87.9231 271.288 89.1474L265.779 85.9175C266.746 84.2038 267.997 82.8993 269.531 82.0041C271.065 81.1089 272.776 80.7098 274.664 80.8067C276.579 80.92 278.524 81.5557 280.5 82.7139ZM259.949 111.551C258.892 110.932 258.203 110.098 257.882 109.05C257.606 107.991 257.753 106.974 258.324 106C258.895 105.026 259.702 104.415 260.745 104.166C261.832 103.906 262.904 104.086 263.962 104.706C264.991 105.31 265.644 106.141 265.921 107.201C266.213 108.232 266.074 109.235 265.503 110.209C264.932 111.183 264.117 111.808 263.058 112.084C262.015 112.333 260.979 112.155 259.949 111.551Z" fill="#585858"/>
<path d="M85.1756 39.0046C89.9641 37.4587 94.2324 37.5298 97.9803 39.2178C101.759 40.8449 104.385 43.9376 105.856 48.4958C107.313 53.0081 106.978 56.9295 104.85 60.2602C102.707 63.5449 99.2416 65.9601 94.4531 67.506L95.8937 72.9132L87.3988 75.6556L83.263 64.0261L86.371 63.0228C90.3767 61.7296 93.2907 60.2042 95.1128 58.4466C96.9349 56.689 97.3927 54.4059 96.4859 51.5972C95.8319 49.5713 94.7131 48.1531 93.1295 47.3424C91.592 46.5169 89.8102 46.4312 87.7843 47.0852C85.6664 47.769 84.1946 48.8796 83.3691 50.4172C82.5896 51.9398 82.5269 53.7141 83.1809 55.74L74.0644 58.6832C73.1116 55.8894 72.9001 53.1868 73.4298 50.5754C73.9594 47.964 75.2207 45.6502 77.2136 43.6341C79.2526 41.6032 81.9066 40.06 85.1756 39.0046ZM96.9406 90.802C95.1909 91.3669 93.5696 91.3056 92.0767 90.6182C90.6149 89.8699 89.6239 88.69 89.1036 87.0785C88.5834 85.467 88.7048 83.9534 89.468 82.5376C90.2623 81.061 91.5343 80.0403 93.2839 79.4754C94.9875 78.9254 96.5702 79.0246 98.032 79.7729C99.4789 80.4751 100.462 81.632 100.983 83.2435C101.503 84.855 101.389 86.3917 100.641 87.8534C99.8775 89.2692 98.6442 90.252 96.9406 90.802Z" fill="#3A3A3A"/>
<path d="M87.1922 41.0203C91.9807 39.4744 96.249 39.5454 99.9969 41.2334C103.776 42.8605 106.401 45.9532 107.873 50.5115C109.33 55.0237 108.994 58.9452 106.866 62.2758C104.724 65.5605 101.258 67.9758 96.4697 69.5216L97.9103 74.9288L89.4154 77.6713L85.2796 66.0418L88.3876 65.0384C92.3933 63.7452 95.3073 62.2198 97.1294 60.4622C98.9515 58.7046 99.4093 56.4215 98.5025 53.6129C97.8485 51.587 96.7297 50.1687 95.1461 49.358C93.6086 48.5325 91.8268 48.4468 89.8009 49.1008C87.683 49.7846 86.2112 50.8952 85.3857 52.4328C84.6062 53.9555 84.5435 55.7298 85.1975 57.7556L76.081 60.6988C75.1282 57.905 74.9167 55.2024 75.4464 52.591C75.976 49.9796 77.2373 47.6659 79.2302 45.6498C81.2692 43.6188 83.9232 42.0756 87.1922 41.0203ZM98.9572 92.8176C97.2075 93.3825 95.5862 93.3212 94.0933 92.6338C92.6315 91.8855 91.6405 90.7056 91.1202 89.0941C90.6 87.4826 90.7214 85.969 91.4846 84.5533C92.2789 83.0766 93.5509 82.0559 95.3005 81.491C97.0041 80.9411 98.5868 81.0402 100.049 81.7885C101.496 82.4908 102.479 83.6476 102.999 85.2591C103.52 86.8706 103.406 88.4073 102.657 89.8691C101.894 91.2848 100.661 92.2677 98.9572 92.8176Z" fill="#585858"/>
<path d="M50.1714 91.0484C53.1048 89.4211 55.9059 88.9184 58.5748 89.5404C61.2562 90.1186 63.3714 91.8038 64.9205 94.5962C66.4539 97.3604 66.7389 99.9687 65.7756 102.421C64.7966 104.845 62.8404 106.871 59.907 108.499L61.545 111.85L56.341 114.737L52.1395 107.662L54.0434 106.606C56.4973 105.244 58.2071 103.872 59.1729 102.488C60.1387 101.103 60.1444 99.5511 59.1899 97.8305C58.5015 96.5894 57.5872 95.8056 56.447 95.4791C55.335 95.1369 54.1585 95.3101 52.9174 95.9985C51.62 96.7183 50.8001 97.6342 50.4579 98.7461C50.144 99.8425 50.3312 101.011 51.0197 102.252L45.4349 105.35C44.4522 103.645 43.9661 101.905 43.9766 100.128C43.9872 98.3521 44.5145 96.6763 45.5588 95.1011C46.6312 93.5102 48.1688 92.1593 50.1714 91.0484ZM64.5313 123.417C63.4595 124.012 62.391 124.18 61.326 123.923C60.2735 123.621 59.4735 122.977 58.9258 121.99C58.3782 121.003 58.2629 119.997 58.58 118.973C58.9096 117.904 59.6103 117.073 60.6821 116.479C61.7257 115.9 62.7738 115.761 63.8263 116.062C64.8631 116.335 65.6553 116.966 66.203 117.953C66.7506 118.94 66.8737 119.96 66.5723 121.012C66.2553 122.037 65.5749 122.838 64.5313 123.417Z" fill="#3A3A3A"/>
<path d="M51.3081 92.0386C54.2415 90.4113 57.0427 89.9087 59.7115 90.5307C62.3929 91.1088 64.5082 92.794 66.0572 95.5864C67.5906 98.3506 67.8757 100.959 66.9123 103.411C65.9333 105.836 63.9771 107.861 61.0437 109.489L62.6817 112.84L57.4777 115.727L53.2762 108.652L55.1801 107.596C57.634 106.235 59.3439 104.862 60.3097 103.478C61.2755 102.094 61.2811 100.541 60.3267 98.8207C59.6382 97.5797 58.7239 96.7959 57.5837 96.4693C56.4717 96.1272 55.2952 96.3003 54.0541 96.9888C52.7567 97.7085 51.9368 98.6244 51.5947 99.7364C51.2807 100.833 51.4679 102.001 52.1564 103.242L46.5716 106.341C45.5889 104.636 45.1029 102.895 45.1134 101.119C45.1239 99.3423 45.6512 97.6665 46.6955 96.0913C47.7679 94.5005 49.3055 93.1496 51.3081 92.0386ZM65.668 124.407C64.5962 125.002 63.5278 125.171 62.4627 124.913C61.4103 124.612 60.6102 123.967 60.0625 122.98C59.5149 121.993 59.3996 120.987 59.7167 119.963C60.0463 118.895 60.747 118.063 61.8188 117.469C62.8625 116.89 63.9105 116.751 64.963 117.052C65.9998 117.326 66.792 117.956 67.3397 118.943C67.8873 119.93 68.0104 120.95 67.709 122.003C67.392 123.027 66.7116 123.829 65.668 124.407Z" fill="#585858"/>
<defs>
<clipPath id="clip0_705_2">
<rect width="379" height="318.521" fill="white" transform="translate(0 44.541)"/>
</clipPath>
</defs>
</svg>
