<svg width="18" height="15" viewBox="0 0 18 15" fill="none" xmlns="http://www.w3.org/2000/svg">
<path d="M2.48505 1.58879C2.48505 0.729996 3.22804 0.0273438 4.13613 0.0273438C5.04421 0.0273438 5.7872 0.729996 5.7872 1.58879C5.7872 2.44759 5.04421 3.15024 4.13613 3.15024C3.22804 3.15024 2.48505 2.44759 2.48505 1.58879ZM6.43111 4.38379C5.72941 4.09492 4.95341 3.93097 4.13613 3.93097C3.31885 3.93097 2.54284 4.09492 1.84114 4.38379C1.23024 4.63362 0.833984 5.19574 0.833984 5.82813V6.27314H7.43827V5.82813C7.43827 5.19574 7.04201 4.63362 6.43111 4.38379ZM14.0425 3.15024C14.9506 3.15024 15.6936 2.44759 15.6936 1.58879C15.6936 0.729996 14.9506 0.0273438 14.0425 0.0273438C13.1345 0.0273438 12.3915 0.729996 12.3915 1.58879C12.3915 2.44759 13.1345 3.15024 14.0425 3.15024ZM16.3375 4.38379C15.6358 4.09492 14.8598 3.93097 14.0425 3.93097C13.2253 3.93097 12.4493 4.09492 11.7476 4.38379C11.1367 4.63362 10.7404 5.19574 10.7404 5.82813V6.27314H17.3447V5.82813C17.3447 5.19574 16.9484 4.63362 16.3375 4.38379ZM17.3447 10.9575L14.0425 7.83459V10.1768H4.13613V7.83459L0.833984 10.9575L4.13613 14.0804V11.7382H14.0425V14.0804L17.3447 10.9575Z" fill="white"/>
</svg>
