<svg width="15" height="12" viewBox="0 0 15 12" fill="none" xmlns="http://www.w3.org/2000/svg">
<path d="M13.3658 4.13672C12.4082 4.13672 11.8732 5.05655 12.0912 5.74004L9.74664 8.01408C9.54852 7.95659 9.25793 7.95659 9.0598 8.01408L7.37571 6.38521C7.60025 5.70172 7.06531 4.77549 6.10108 4.77549C5.14346 4.77549 4.60191 5.69533 4.82645 6.38521L1.8149 9.29163C1.10824 9.08084 0.157227 9.59824 0.157227 10.5245C0.157227 11.2271 0.751612 11.802 1.47808 11.802C2.4357 11.802 2.97065 10.8822 2.75271 10.1987L5.75766 7.28588C5.95579 7.34337 6.24638 7.34337 6.4445 7.28588L8.1286 8.91475C7.90405 9.59824 8.439 10.5245 9.40322 10.5245C10.3608 10.5245 10.9024 9.60463 10.6778 8.91475L13.029 6.6471C13.7356 6.8579 14.6866 6.34049 14.6866 5.41427C14.6866 4.71162 14.0923 4.13672 13.3658 4.13672Z" fill="white"/>
<path d="M9.40218 4.77601L10.023 3.45374L11.3835 2.85968L10.023 2.26562L9.40218 0.943359L8.79459 2.26562L7.4209 2.85968L8.79459 3.45374L9.40218 4.77601Z" fill="white"/>
<path d="M1.8083 6.05325L2.13851 4.7757L3.45937 4.45631L2.13851 4.13692L1.8083 2.85938L1.47808 4.13692L0.157227 4.45631L1.47808 4.7757L1.8083 6.05325Z" fill="white"/>
</svg>
