<svg width="26" height="21" viewBox="0 0 26 21" fill="none" xmlns="http://www.w3.org/2000/svg">
<path d="M23.0273 5.3705C23.043 5.59145 23.043 5.81244 23.043 6.03338C23.043 12.7724 17.9138 20.5374 8.53901 20.5374C5.65082 20.5374 2.96783 19.7009 0.710938 18.249C1.12129 18.2963 1.51582 18.3121 1.94196 18.3121C4.32507 18.3121 6.51885 17.5072 8.27071 16.1341C6.0296 16.0868 4.15149 14.619 3.5044 12.5989C3.82007 12.6462 4.1357 12.6778 4.46716 12.6778C4.92484 12.6778 5.38256 12.6146 5.80866 12.5042C3.47287 12.0307 1.72097 9.97897 1.72097 7.50114V7.43803C2.39959 7.81681 3.18877 8.05354 4.02518 8.08507C2.65211 7.16967 1.75255 5.60724 1.75255 3.83959C1.75255 2.89267 2.00502 2.02464 2.44695 1.26708C4.95637 4.36042 8.72838 6.38054 12.958 6.60153C12.8791 6.22275 12.8318 5.82823 12.8318 5.43366C12.8318 2.62436 15.1044 0.335938 17.9295 0.335938C19.3972 0.335938 20.7229 0.95145 21.6541 1.94574C22.8062 1.7248 23.911 1.29865 24.8895 0.714718C24.5107 1.89842 23.7058 2.89272 22.6484 3.52397C23.6743 3.41355 24.6686 3.1294 25.5839 2.73488C24.8896 3.74491 24.0215 4.64447 23.0273 5.3705V5.3705Z" fill="#8B8B8B"/>
</svg>
