<svg width="39" height="40" viewBox="0 0 39 40" fill="none" xmlns="http://www.w3.org/2000/svg">
<path d="M19.5915 0.647949C8.98131 0.647949 0.370117 9.25914 0.370117 19.8694C0.370117 30.4796 8.98131 39.0908 19.5915 39.0908C30.2017 39.0908 38.8129 30.4796 38.8129 19.8694C38.8129 9.25914 30.2017 0.647949 19.5915 0.647949ZM19.5915 6.41437C22.7823 6.41437 25.358 8.99004 25.358 12.1808C25.358 15.3716 22.7823 17.9472 19.5915 17.9472C16.4008 17.9472 13.8251 15.3716 13.8251 12.1808C13.8251 8.99004 16.4008 6.41437 19.5915 6.41437ZM19.5915 33.7088C14.7862 33.7088 10.5382 31.2484 8.05868 27.5195C8.11635 23.6944 15.7472 21.5993 19.5915 21.5993C23.4166 21.5993 31.0667 23.6944 31.1244 27.5195C28.6448 31.2484 24.3969 33.7088 19.5915 33.7088Z" fill="#FDD135"/>
</svg>
